<?xml version="1.0" encoding="UTF-8"?>
<svg id="cocktail" xmlns="http://www.w3.org/2000/svg" xmlns:xlink="http://www.w3.org/1999/xlink" viewBox="0 0 2000 2000">
  <defs>
    <style>
      .cls-1 {
        fill: url(#linear-gradient);
      }

      .cls-2 {
        fill: #f6ecec;
      }

      .cls-3 {
        fill: #f7f3df;
      }

      .cls-4 {
        fill: #f8e3d3;
      }

      .cls-5 {
        fill: #fcfcfc;
      }

      .cls-6 {
        fill: #fff;
      }

      .cls-7 {
        fill: #fbfdfa;
      }

      .cls-8 {
        fill: #f0c346;
      }

      .cls-9 {
        fill: #fcf9fa;
      }

      .cls-10 {
        fill: #71c5dc;
      }

      .cls-11 {
        fill: #9cdfe8;
      }

      .cls-12 {
        fill: #8ebbc6;
      }

      .cls-13 {
        fill: #ce3b43;
      }

      .cls-14 {
        fill: #c47a80;
      }

      .cls-15 {
        fill: #dbeee9;
      }

      .cls-16 {
        fill: #dba159;
      }

      .cls-17 {
        fill: #203e5f;
      }

      .cls-18 {
        fill: #3e6c7b;
      }

      .cls-19 {
        fill: #477c92;
      }

      .cls-20 {
        fill: #30597c;
      }

      .cls-21 {
        fill: #36e100;
      }

      .cls-22 {
        fill: #5db0c7;
      }

      .cls-23 {
        fill: #4d81a0;
      }

      .cls-24 {
        fill: url(#linear-gradient-2);
      }

      .cls-25 {
        opacity: .2;
      }

      .cls-26 {
        opacity: .25;
      }

      .cls-27 {
        opacity: .44;
      }
    </style>
    <linearGradient id="linear-gradient" x1="807.71" y1="818.29" x2="1233.42" y2="818.29" gradientUnits="userSpaceOnUse">
      <stop offset=".12" stop-color="#e95960"/>
      <stop offset=".76" stop-color="#f8e3d3"/>
    </linearGradient>
    <linearGradient id="linear-gradient-2" x1="1266.82" y1="717.93" x2="629.25" y2="703.26" xlink:href="#linear-gradient"/>
  </defs>
  <rect class="cls-18" x="0" y="0" width="2000" height="1464.81"/>
  <rect class="cls-8" x="0" y="1415.01" width="2000" height="584.99"/>
  <path class="cls-5" d="M64.93,1187.58s33.96-98.21,165.83-98.21c0,0,19.98-87.51,139.85-109.89,119.87-22.38,195.79,77.83,193.8,119.92,0,0,167.82-34.07,203.79,88.19H64.93Z"/>
  <path class="cls-7" d="M152.92,503.83s138.61,22.12,154.36,92.7c0,0,5.25-65.31,137.56-87.43,0,0-95.56-5.27-136.51,41.08,0,0-34.13-47.4-155.42-46.35Z"/>
  <path class="cls-7" d="M370.4,765.34s78.67,12.56,87.61,52.62c0,0,2.98-37.07,78.08-49.63,0,0-54.24-2.99-77.48,23.32,0,0-19.37-26.91-88.21-26.31Z"/>
  <path class="cls-7" d="M508.6,697.97s43.15,6.89,48.06,28.86c0,0,1.63-20.33,42.83-27.22,0,0-29.75-1.64-42.5,12.79,0,0-10.63-14.76-48.39-14.43Z"/>
  <rect class="cls-22" x="0" y="1187.58" width="2000" height="65.46"/>
  <rect class="cls-10" x="0" y="1253.04" width="2000" height="65.46"/>
  <rect class="cls-11" x="0" y="1318.5" width="2000" height="65.46"/>
  <g>
    <g class="cls-25">
      <ellipse class="cls-5" cx="1538.79" cy="482.24" rx="225.45" ry="226.16"/>
    </g>
    <g class="cls-26">
      <ellipse class="cls-5" cx="1539.77" cy="482.24" rx="180.02" ry="180.59"/>
    </g>
    <ellipse class="cls-5" cx="1539.77" cy="482.24" rx="131.23" ry="131.65"/>
  </g>
  <path class="cls-14" d="M2000,1920.74v79.26h-587.09l-661.04-227.02-8.99-3.09-8.97-3.08-2.74-9.67-.88-3.08s0-.02,0-.03l-1.47-3.06-11.33-23.53,4.58-2.99,11.26-7.35,261.25-170.6s0-.01,.02-.01l56.56,27.67,107.37,52.53,115.11,56.31,20.26,9.91,22.54,11.02,16.3,7.98,44.01,21.53,8.56,2.8,34.25,11.21,37.92,12.4,8.28,2.71,1.17,.38h.03s10.15,3.08,10.15,3.08l428.13,129.49,94.77,25.25Z"/>
  <g>
    <g>
      <path class="cls-17" d="M1322.74,1632.56c0,42.71-6.63,83.64-18.77,121.5h-275.93c73.94-64.04,137.21-127.15,166.4-176.34,49.2-82.9,47.97-151.04,35.07-197.76,57.48,63.87,93.22,153.43,93.22,252.6Z"/>
      <path class="cls-20" d="M1194.44,1577.72c-29.19,49.19-92.46,112.3-166.4,176.34h-157.59c181.34-178.87,281.66-265.05,280.35-356.05-.81-56.65-34.27-89.51-63.93-107.55,54.64,14.66,103.65,46.17,142.64,89.51,12.9,46.72,14.13,114.86-35.07,197.76Z"/>
      <path class="cls-9" d="M1002.29,1335.04s-.04,.01-.06,.01c-.03,.01-.05,.01-.05,.01-80.49,19.99-136.07,76.47-180.12,127.15-49.46,56.91-43.64,97.77-75.69,83.18-11.4-5.18-17.08-13.7-19.66-22.52,20.52-71.84,60.66-133.45,113.13-176.47,46.34-38.01,102.31-61.51,162.88-64.74,.62,.2,1.24,.39,1.84,.6,26.07,8.59,24.3,46.07-2.26,52.78Z"/>
      <path class="cls-12" d="M730.28,1754.06c-12.15-37.86-18.78-78.79-18.78-121.5,0-38.31,5.34-75.18,15.2-109.7,2.58,8.82,8.26,17.34,19.66,22.52,32.05,14.6,26.23-26.26,75.69-83.18,44.05-50.69,99.64-107.16,180.12-127.15,0,0,.02,0,.05-.01,.02,0,.04-.01,.06-.01,3.19-.6,71.58-12.4,78.69,70.27,7.27,84.64-263.55,318.11-350.7,348.76Z"/>
      <path class="cls-23" d="M1150.8,1398.01c1.3,91-99.01,177.19-280.35,356.05h-140.16c87.15-30.64,357.97-264.12,350.7-348.76-7.11-82.66-75.51-70.86-78.69-70.27,26.57-6.71,28.33-44.19,2.26-52.78-.6-.21-1.22-.4-1.84-.6,4.78-.26,9.58-.39,14.42-.39,24,0,47.35,3.18,69.75,9.19,29.65,18.04,63.12,50.9,63.93,107.55Z"/>
    </g>
    <rect class="cls-17" x="688.01" y="1750.98" width="631.99" height="6.17"/>
    <path class="cls-19" d="M658.73,1690.68c0,16.94-3.72,33.02-10.4,47.45h-204.39c-6.68-14.43-10.4-30.51-10.4-47.45,0-6.25,.5-12.39,1.5-18.36,8.73-53.66,55.15-94.6,111.1-94.6,14.22,0,27.83,2.64,40.36,7.48,9.25,3.56,17.91,8.31,25.79,14.06,28.15,20.53,46.44,53.82,46.44,91.41Z"/>
    <path class="cls-12" d="M612.3,1599.27c-4.09,10.21-14.04,23.49-38.04,32.74-38.5,14.84-74.41,49.1-79.68,106.12h-50.64c-6.68-14.43-10.4-30.51-10.4-47.45,0-6.25,.5-12.39,1.5-18.36,8.73-53.66,55.15-94.6,111.1-94.6,14.22,0,27.83,2.64,40.36,7.48,9.25,3.56,17.91,8.31,25.79,14.06Z"/>
    <rect class="cls-17" x="422.19" y="1735.04" width="257.92" height="6.17"/>
    <g>
      <path class="cls-12" d="M677.45,1709.98c-21.48,16.69-47.83,25.17-63.27,59.92h-55.61c28.87-88.07,93.1-66.18,94.46-88.87,.94-15.7-22.1-20.76-38.78-22.38,6.33-1.12,12.86-1.7,19.51-1.7,16.91,0,32.95,3.74,47.35,10.45,6.6,11.39,12.93,29.69-3.66,42.58Z"/>
      <path class="cls-20" d="M746.36,1769.89h-57.76c3.93-9.34,9.97-19.14,19.2-27.25,11.15-9.79,14-27.26,11.92-45.68,16.63,19.67,26.64,45.14,26.64,72.93Z"/>
    </g>
    <path class="cls-9" d="M535.15,1614.1c-59.5,11.08-48.46,75.05-78.2,80.16-13.06,2.25-19.16-8.82-21.91-21.94,8.73-53.66,55.15-94.6,111.1-94.6,14.22,0,27.83,2.64,40.36,7.48,2.66,15.54-6.38,20.52-51.36,28.89Z"/>
    <path class="cls-9" d="M653.04,1681.03c-1.36,22.7-65.59,.8-94.46,88.87h-37.4c0-55.7,40.2-101.99,93.08-111.25,16.68,1.61,39.73,6.68,38.78,22.38Z"/>
    <path class="cls-19" d="M707.8,1742.65c-9.23,8.11-15.27,17.91-19.2,27.25h-74.42c15.44-34.74,41.8-43.22,63.27-59.92,16.59-12.89,10.26-31.19,3.66-42.58,14.94,6.95,28.11,17.09,38.61,29.56,2.08,18.42-.77,35.89-11.92,45.68Z"/>
    <g>
      <path class="cls-12" d="M677.45,1709.98c-21.48,16.69-47.83,25.17-63.27,59.92h-55.61c28.87-88.07,93.1-66.18,94.46-88.87,.94-15.7-22.1-20.76-38.78-22.38,6.33-1.12,12.86-1.7,19.51-1.7,16.91,0,32.95,3.74,47.35,10.45,6.6,11.39,12.93,29.69-3.66,42.58Z"/>
      <path class="cls-20" d="M746.36,1769.89h-57.76c3.93-9.34,9.97-19.14,19.2-27.25,11.15-9.79,14-27.26,11.92-45.68,16.63,19.67,26.64,45.14,26.64,72.93Z"/>
    </g>
    <rect class="cls-17" x="502.43" y="1766.82" width="257.92" height="6.17"/>
    <g>
      <path class="cls-20" d="M1432.22,1682.5c-.89,19.99-4.82,53-19.87,80.41h-43.89c32.51-40.84,32.22-84.59,30.19-103.33,12.56,5.57,23.93,13.37,33.57,22.92Z"/>
      <path class="cls-19" d="M1368.47,1762.92h-127.9c0-14.5,2.73-28.37,7.68-41.11h.01c15.62-40.09,53.42-69.03,98.27-71.64,2.19-.13,4.41-.2,6.63-.2,7.81,0,15.43,.8,22.79,2.31,7.9,1.63,15.49,4.09,22.7,7.3,2.04,18.75,2.33,62.5-30.19,103.33Z"/>
      <path class="cls-17" d="M1465.76,1762.92h-53.4c15.05-27.41,18.98-60.42,19.87-80.41,20.71,20.48,33.54,48.95,33.54,80.41Z"/>
      <path class="cls-12" d="M1341.55,1706.45c-36.39,21.81-51.04,37.96-56.39,56.47h-44.59c0-14.5,2.73-28.37,7.68-41.11h.01c15.62-40.09,53.43-69.03,98.27-71.64,2.19-.13,4.41-.2,6.63-.2,7.81,0,15.43,.8,22.79,2.31,2.61,12.09,.41,33.27-34.41,54.16Z"/>
      <path class="cls-9" d="M1334.71,1670.44c-35.09,19.75-46.22,18.89-59.07,47.22-5.72,12.63-17.4,11.77-27.37,4.15,15.62-40.09,53.43-69.03,98.27-71.64,2.86,5.99,1.03,13.02-11.83,20.27Z"/>
      <rect class="cls-17" x="1228.83" y="1759.83" width="257.92" height="6.17"/>
    </g>
  </g>
  <g>
    <path class="cls-20" d="M1773.4,1610.76c-.87,19.51-4.7,51.72-19.39,78.48h-42.83c31.73-39.86,31.45-82.55,29.46-100.85,12.26,5.44,23.35,13.05,32.76,22.37Z"/>
    <path class="cls-19" d="M1711.18,1689.24h-124.82c0-14.15,2.66-27.69,7.5-40.12h.01c15.24-39.12,52.14-67.37,95.91-69.92,2.14-.13,4.3-.19,6.47-.19,7.62,0,15.06,.78,22.24,2.26,7.71,1.59,15.12,3.99,22.15,7.12,1.99,18.3,2.27,60.99-29.46,100.85Z"/>
    <path class="cls-17" d="M1806.13,1689.24h-52.12c14.69-26.75,18.52-58.97,19.39-78.48,20.21,19.98,32.73,47.77,32.73,78.48Z"/>
    <path class="cls-12" d="M1684.91,1634.13c-35.51,21.29-49.81,37.05-55.03,55.11h-43.52c0-14.15,2.66-27.69,7.5-40.12h.01c15.24-39.12,52.14-67.37,95.91-69.92,2.14-.13,4.3-.19,6.47-.19,7.62,0,15.06,.78,22.24,2.26,2.55,11.8,.4,32.47-33.58,52.86Z"/>
    <path class="cls-9" d="M1678.23,1598.98c-34.25,19.27-45.11,18.44-57.65,46.09-5.58,12.33-16.98,11.49-26.71,4.05,15.24-39.12,52.14-67.37,95.91-69.92,2.79,5.85,1.01,12.71-11.55,19.78Z"/>
    <rect class="cls-17" x="1574.89" y="1686.23" width="251.71" height="6.02"/>
  </g>
  <g>
    <path class="cls-20" d="M258.82,1838.38c-.53,11.95-2.88,31.68-11.88,48.06h-26.23c19.43-24.41,19.26-50.56,18.04-61.76,7.51,3.33,14.3,7.99,20.06,13.7Z"/>
    <path class="cls-19" d="M220.71,1886.44h-76.45c0-8.67,1.63-16.96,4.59-24.57h0c9.33-23.96,31.93-41.26,58.74-42.82,1.31-.08,2.63-.12,3.96-.12,4.67,0,9.22,.48,13.62,1.38,4.72,.98,9.26,2.45,13.57,4.36,1.22,11.21,1.39,37.35-18.04,61.76Z"/>
    <path class="cls-17" d="M278.86,1886.44h-31.92c9-16.39,11.34-36.11,11.88-48.06,12.38,12.24,20.05,29.26,20.05,48.06Z"/>
    <path class="cls-12" d="M204.62,1852.69c-21.75,13.04-30.51,22.69-33.7,33.75h-26.65c0-8.67,1.63-16.96,4.59-24.57h0c9.33-23.96,31.93-41.26,58.74-42.82,1.31-.08,2.63-.12,3.96-.12,4.67,0,9.22,.48,13.62,1.38,1.56,7.23,.24,19.89-20.57,32.37Z"/>
    <path class="cls-9" d="M200.53,1831.17c-20.98,11.8-27.63,11.29-35.31,28.22-3.42,7.55-10.4,7.03-16.36,2.48,9.33-23.96,31.93-41.26,58.74-42.82,1.71,3.58,.62,7.78-7.07,12.12Z"/>
    <rect class="cls-17" x="137.25" y="1884.6" width="154.16" height="3.69"/>
  </g>
  <g>
    <path class="cls-20" d="M350.53,1488.42c-.39,8.68-2.09,23.02-8.63,34.93h-19.06c14.12-17.74,14-36.74,13.11-44.89,5.46,2.42,10.39,5.81,14.58,9.96Z"/>
    <path class="cls-19" d="M322.83,1523.35h-55.56c0-6.3,1.18-12.32,3.34-17.86h0c6.78-17.41,23.21-29.99,42.69-31.12,.95-.06,1.91-.08,2.88-.08,3.39,0,6.7,.35,9.9,1,3.43,.71,6.73,1.78,9.86,3.17,.89,8.14,1.01,27.15-13.11,44.89Z"/>
    <path class="cls-17" d="M365.1,1523.35h-23.2c6.54-11.91,8.24-26.25,8.63-34.93,9,8.89,14.57,21.26,14.57,34.93Z"/>
    <path class="cls-12" d="M311.14,1498.82c-15.81,9.47-22.17,16.49-24.49,24.53h-19.37c0-6.3,1.18-12.32,3.34-17.86h0c6.78-17.41,23.21-29.99,42.69-31.12,.95-.06,1.91-.08,2.88-.08,3.39,0,6.7,.35,9.9,1,1.13,5.25,.18,14.45-14.95,23.53Z"/>
    <path class="cls-9" d="M308.17,1483.18c-15.24,8.58-20.08,8.21-25.66,20.51-2.48,5.49-7.56,5.11-11.89,1.8,6.78-17.41,23.21-29.99,42.69-31.12,1.24,2.6,.45,5.66-5.14,8.81Z"/>
    <rect class="cls-17" x="262.18" y="1522.01" width="112.04" height="2.68"/>
  </g>
  <path class="cls-15" d="M477.59,1187.57H0v-53.69c18.42-11.14,43.38-19.56,76.72-19.56,0,0,14.91-65.27,104.32-81.97,89.41-16.69,146.04,58.05,144.55,89.44,0,0,125.18-25.41,152,65.78Z"/>
  <path class="cls-5" d="M2000,1072.5v115.07h-531.15c35.96-122.26,203.78-88.18,203.78-88.18-1.99-42.09,73.93-142.31,193.8-119.92,86.7,16.19,121.14,66.45,133.57,93.02Z"/>
  <path class="cls-15" d="M2000,1033.67v153.91h-240.56c26.83-91.19,152.01-65.78,152.01-65.78-1.15-24.2,32.23-74.15,88.55-88.13Z"/>
  <path class="cls-17" d="M838.99,1316.16s-12,39.46,114.83,51.96c126.84,12.5,250.23-16.57,239.4-55.18-10.85-38.7-4.86,67.91-354.23,3.22Z"/>
  <g>
    <path class="cls-6" d="M873.73,613.59v1.31h-129.52s3.61,5.09,9.83,13.88c4.88,6.86,11.35,16,18.97,26.77,7.62,10.73,16.39,23.08,25.84,36.4,2.36,3.34,4.79,6.74,7.21,10.2,3.61,5.05,7.28,10.23,11.01,15.47,.87,1.22,1.74,2.46,2.64,3.71-1.74,1.28-3.48,2.53-5.29,3.74-21.27,14.32-46.89,22.68-74.44,22.68-73.85,0-133.75-60.08-133.75-134.17s59.89-134.17,133.75-134.17,130.36,56.74,133.59,127.93c.09,2.06,.16,4.15,.16,6.24Z"/>
    <path class="cls-16" d="M869.18,613.59v1.31h-124.98s3.61,5.09,9.83,13.88c4.88,6.86,11.35,16,18.97,26.77,7.62,10.73,16.39,23.08,25.84,36.4,2.36,3.34,4.79,6.74,7.21,10.2,3.61,5.05,7.28,10.23,11.01,15.47-1.74,1.28-3.51,2.56-5.32,3.74-20.52,13.79-45.18,21.84-71.77,21.84-71.37,0-129.21-58.02-129.21-129.62s57.84-129.62,129.21-129.62,125.82,54.69,129.08,123.38c.06,2.06,.12,4.15,.12,6.24Z"/>
    <path class="cls-6" d="M760.6,614.9h-16.39s3.61,5.09,9.83,13.88c-1.83,1.72-3.98,3.12-6.37,4.02-2.36,1-4.98,1.53-7.68,1.53-11.41,0-20.68-9.3-20.68-20.74s9.27-20.75,20.68-20.75c9.24,0,17.1,6.11,19.72,14.51,.62,1.96,.96,4.06,.96,6.24,0,.44,0,.87-.06,1.31Z"/>
    <rect class="cls-21" x="737.98" y="509.16" width="4" height="104.43"/>
    <path class="cls-3" d="M793.28,695.85c-11.85,7.8-25.44,13.04-40.08,15.01-3.7,.53-7-2.43-7-6.21v-60.92c0-3.24,2.27-5.55,4.94-6.11,1.9-.44,4.01,.03,5.66,1.68l16.2,16.25c-7.62-10.76-14.09-19.9-18.97-26.77-6.22-8.8-9.83-13.88-9.83-13.88h106.1c0-2.5-.06-4.99-.19-7.55-.09-1.9-.25-3.84-.47-5.77-5.41-51.32-46.55-92.59-97.71-98.01-70.22-7.49-129.11,51.6-121.65,122.03,5.41,51.32,46.55,92.59,97.71,98.02,26.9,2.87,52.15-4.02,72.61-17.63,1.87-1.19,3.67-2.46,5.44-3.84-2.43-3.46-4.85-6.86-7.21-10.2-1.8,1.37-3.67,2.68-5.57,3.9Zm24.6-141.59c10.01,13.16,16.76,28.92,19.06,46.08,.53,3.71-2.43,7.02-6.19,7.02h-60.73c-5.57,0-8.33-6.71-4.42-10.64l42.91-43.08c2.67-2.65,7.09-2.4,9.36,.62Zm-71.68-31.73c0-3.77,3.3-6.71,7-6.21,17.1,2.31,32.81,9.11,45.93,19.12,3.02,2.28,3.27,6.71,.62,9.39l-42.94,43.05c-3.92,3.93-10.6,1.15-10.6-4.43v-60.92Zm-65.36,12.92c13.12-10.01,28.83-16.81,45.93-19.12,3.7-.5,7,2.43,7,6.21v60.92c0,5.58-6.69,8.36-10.6,4.43l-42.94-43.05c-2.64-2.68-2.39-7.11,.62-9.39Zm-37.81,64.89c2.3-17.16,9.05-32.91,19.06-46.08,2.27-3.03,6.69-3.28,9.36-.62l42.91,43.08c3.92,3.93,1.15,10.64-4.42,10.64h-60.73c-3.76,0-6.72-3.31-6.19-7.02Zm19.06,72.59c-10.01-13.13-16.76-28.92-19.06-46.04-.53-3.74,2.43-7.05,6.19-7.05h60.73c5.54,0,8.33,6.74,4.42,10.64l-42.94,43.08c-2.64,2.65-7.06,2.4-9.33-.62Zm71.68,31.73c0,3.77-3.3,6.74-7,6.21-17.1-2.31-32.81-9.08-45.93-19.12-3.02-2.28-3.27-6.71-.62-9.36l42.94-43.08c3.92-3.93,10.6-1.12,10.6,4.43v60.92Z"/>
  </g>
  <g class="cls-26">
    <path class="cls-6" d="M1194.21,1315.45c0,11.11-13.43,21.37-36.13,29.57-3.17,1.15-6.5,2.25-10.01,3.31t-.06,.03c-2.27,.69-4.63,1.34-7.06,2-.03,0-.06,.03-.09,.03-11.72,3.15-25.03,5.87-39.52,8.05-.06,0-.12,.03-.19,.03-25.13,3.74-53.92,5.86-84.52,5.86-98.11,0-177.62-21.87-177.62-48.88,0-21.18,48.88-39.18,117.3-45.98,20.68-2.06,36.51-19.47,36.51-40.34v-300.19c2.49,.59,4.98,1.09,7.49,1.47,8.09,1.28,16.26,1.62,24.41,.97,5.29-.41,10.54-1.22,15.7-2.43v300.19c0,20.87,15.83,38.28,36.51,40.34,68.41,6.8,117.3,24.8,117.3,45.98Z"/>
  </g>
  <path class="cls-6" d="M1101.13,1358.47c-25.13,3.74-53.92,5.86-84.52,5.86-98.11,0-177.62-21.87-177.62-48.88,0-21.18,48.88-39.18,117.3-45.98,20.68-2.06,36.51-19.47,36.51-40.34v-300.19c2.49,.59,4.98,1.09,7.49,1.47,1.62,75.24,5.88,300.88-.53,318.41-7.71,21.06-21.61,27.98-57.31,30.6-29.08,2.15-88.97,16.47-88.97,39.43,0,20.12,146.53,52,247.65,39.62Z"/>
  <g class="cls-26">
    <path class="cls-6" d="M1296.79,617.24l-63.37,87.63-133.12,184.02c-15.42,21.31-36.88,34.66-59.89,40.05-13.74,3.24-28.02,3.62-41.86,1.19-1.93-.34-3.86-.75-5.75-1.19-1.87-.44-3.73-.94-5.57-1.5,0,0-.4-.12-1.18-.37-20.43-6.24-39.24-19-53.14-38.18l-125.19-173.07v-.03l-71.3-98.55c-2.99-4.12-.03-9.89,5.04-9.89h550.31c5.07,0,8.02,5.77,5.04,9.89Z"/>
  </g>
  <path class="cls-1" d="M1233.42,704.87l-133.12,184.02c-15.42,21.31-36.88,34.66-59.89,40.05-15.64,3.68-31.97,3.68-47.61,0-1.87-.44-3.73-.94-5.57-1.5-20.9-6.11-40.15-18.97-54.33-38.56l-74.97-103.66-50.22-69.41h.03c3.05,.69,194.35,44.05,376.7-10.73,.22-.06,.4-.12,.53-.16,.06-.03,.12-.03,.19-.06h48.26Z"/>
  <g class="cls-27">
    <path class="cls-13" d="M1233.42,704.87l-133.12,184.02c-15.42,21.31-36.88,34.66-59.89,40.05-15.64,3.68-31.97,3.68-47.61,0-1.87-.44-3.73-.94-5.57-1.5,68.19-19.87,197.93-222.58,197.93-222.58h48.26Z"/>
  </g>
  <path class="cls-24" d="M1185.16,704.87c-.06,.03-.12,.03-.19,.06-.12,.03-.31,.09-.53,.16-182.35,54.78-373.66,11.42-376.7,10.73,2.58-.94,135.89-48.2,377.42-10.95Z"/>
  <ellipse class="cls-2" cx="948.42" cy="791.8" rx="20.1" ry="20.16"/>
  <ellipse class="cls-2" cx="1012.29" cy="830.85" rx="12.52" ry="12.56"/>
  <ellipse class="cls-2" cx="1071.7" cy="769.53" rx="12.52" ry="12.56"/>
  <path class="cls-4" d="M1194.21,1315.45c0,11.11-13.43,21.37-36.13,29.57-46.98,1.73-79.35-11.63-101.04-27.51-24.95-18.27-38.91-48.04-38.31-79.02l5.97-307.11c5.29-.41,10.54-1.22,15.7-2.43v300.19c0,20.87,15.83,38.28,36.51,40.34,68.41,6.8,117.3,24.8,117.3,45.98Z"/>
  <path class="cls-6" d="M1296.79,617.24l-63.37,87.63-133.12,184.02c-15.42,21.31-36.88,34.66-59.89,40.05-13.74,3.24-28.02,3.62-41.86,1.19,62.97,1.15,91.73-41.61,91.73-41.61l197.24-273.61H744.21s3.61,5.09,9.83,13.88c4.88,6.86,11.35,16,18.97,26.77,7.62,10.73,16.39,23.08,25.84,36.4,2.36,3.34,4.79,6.74,7.21,10.2,3.61,5.05,7.28,10.23,11.01,15.47,.87,1.22,1.74,2.46,2.64,3.71,50.66,71.28,110.27,154.92,122.49,170.86,19.06,24.86,38.9,33.1,43.85,34.88-20.43-6.24-39.24-19-53.14-38.18l-118.48-163.81-2.67-3.71-4.04-5.58-7.09-9.8-7.34-10.14-42.14-58.24-3.48-4.8-11.26-15.57c-2.67-3.71-.56-8.73,3.58-9.7,.47-.12,.96-.19,1.46-.19h550.31c5.07,0,8.02,5.77,5.04,9.89Z"/>
  <path class="cls-7" d="M981.25,704.87l167.38-349.57c1.45-3.04,3.95-5.45,7.03-6.8l116.34-50.8c7.83-3.42,16.57,2.38,16.51,10.94h0c-.04,4.73-2.88,8.99-7.23,10.83l-104.74,44.1c-3.2,1.35-5.79,3.84-7.26,7l-159.38,334.3h-28.64Z"/>
</svg>